<svg xmlns="http://www.w3.org/2000/svg" viewBox="0 0 2234.8 668.31"><defs><style>.cls-1{fill:#fff;}</style></defs><title>omega_allergies_logo-white</title><g id="Layer_2" data-name="Layer 2"><g id="Layer_1-2" data-name="Layer 1"><g id="Layer_2-2" data-name="Layer 2"><g id="Calque_1" data-name="Calque 1"><path class="cls-1" d="M755.4,480.3l-25.7,56.2H713.6l76.7-164.8h20.9L830,536.6H812.7l-5.6-56.3Zm50.4-12.5c-4.6-43.8-7.5-70.5-7.7-82.7h-.6c-5.3,14-19.4,45.5-36.4,82.7Z"/><path class="cls-1" d="M882.6,371.8h16.1L871.1,524.1h69.3l-5.2,12.5H852.7Z"/><path class="cls-1" d="M988,371.8h16.1L976.5,524.1h69.3l-5.2,12.5H958.1Z"/><path class="cls-1" d="M1158.9,455.4h-64.7l-12.4,68.7h71.6l-4.6,12.5h-85.2l29.8-164.8h84l-2.3,12.6h-68l-10.6,58.4h64.7Z"/><path class="cls-1" d="M1205.3,458.7l-14.1,77.9h-16.1L1205,371.8h46.7c31.1,0,44,15.7,39.3,41.6-4.5,24.9-20.2,35.5-32.9,38.9,17.8,5.3,20.2,19.7,16.1,42.3l-1.2,6.5c-2.6,14.1-4.4,26.4-3.6,35.4H1253c-1.2-7.5,1.5-22.8,3.8-35.8l1-5.4c4.3-24,1.2-36.6-26.2-36.6Zm2.2-12.3H1235c24.2,0,35.6-12.7,39.2-32.7,3.2-17.4-3.9-29.6-26.4-29.6h-29Z"/><path class="cls-1" d="M1399.2,536.6h-13a139.65,139.65,0,0,1,2.3-19.2c-7.4,10.9-17.5,21.5-42.3,21.5-42,0-44.4-39-36.1-84.8,10-55.5,34.3-84.5,72.3-84.5,43.6,0,40.6,33.9,39.3,43.8h-16.3c.4-5.6,3.7-31.3-25.8-31.3-28.8,0-44.7,28.2-52.6,71.7-7.7,42.2-5.3,72.8,23.4,72.8s38.4-21,45.4-59.3l1.4-7.6h-35.9l2.3-12.5h51.8Z"/><path class="cls-1" d="M599.1,200.2c0-49.1.3-99,1.7-129.1h-.3c-12.3,48.2-41.9,139.8-73,239.7H481.8c-23.9-85.7-56.7-189.8-70-239.5h-.4c2,32.1,3.9,87.6,3.9,134.7V310.8H368.2V33.3h75c27.9,87.5,56.9,175.2,64.2,209.2h.4c10.9-40.8,39.8-125.9,66.2-209.2h75.5V310.8H599.2V200.2Z"/><path class="cls-1" d="M910,189.8H768.5v73.8H925.4l-6.2,47.2H716.5V33.3h201V80.5h-149v62.1H910Z"/><path class="cls-1" d="M1210.1,310.8h-38.2c-1.3-6.4-2.9-21.8-3.6-32.5-15.9,23.8-38.5,38.4-85.6,38.4-79.5,0-125.2-60.5-125.2-143.3,0-81.3,48.2-146,134.8-146,77.8,0,111.2,46.5,118.6,87h-52.7c-6.4-17.8-23-42.1-66.1-42.1-54.3,0-79.8,43.2-79.8,98.2,0,58,26.2,101.1,80,101.1,45,0,67.4-26,67.4-66v-5.7H1093V154.1h117Z"/><path class="cls-1" d="M1322.3,241l-24.9,69.8h-53.6L1345.7,33.3h65.9l106.7,277.5H1462L1435.6,241Zm98.3-47.3c-25.4-67.8-37.6-101.5-43.4-121.9h-.3c-5.4,19.9-19.8,63.8-40.4,121.9Z"/><path class="cls-1" d="M314.1,272.2H275.5c35.7-27.1,58.3-67.4,58.3-112.4,0-81.8-74.7-148-166.9-148S0,78,0,159.8c0,45,22.6,85.3,58.3,112.4H20v12.1h-.3v26.1H151.8V265.6c-50.2-7.2-88.7-49.9-88.7-101.5,0-56.7,46.5-102.6,103.9-102.6s103.8,46,103.8,102.6c0,51.6-38.5,94.3-88.7,101.5v44.8h132V284.3h0Z"/><path class="cls-1" d="M1421.7,616.3h16.5c10.3,0,14.3,5.6,14.3,11.9s-3.9,10.7-9.9,12.3a11,11,0,0,1,7.5,10.6c0,10.8-8.4,15.8-19.6,15.8H1411Zm-3.4,45.4h12.4c7,0,12.7-3.2,12.8-10.3,0-5.1-3.3-8.7-10.9-8.7h-10.3Zm15.9-24.2c6.9,0,11.8-2.4,11.8-8.8,0-5.3-4-7.2-9-7.2h-10.1l-3.4,16Z"/><path class="cls-1" d="M1465.6,666.9l4-19a2,2,0,0,0-.1-1.3l-11-30.3h6.6c2.7,8,7.6,21.4,8.9,25.8,2.9-4.5,13.3-17.7,19.6-25.8h7L1476.4,647a3.1,3.1,0,0,0-.6,1.3l-4,18.6Z"/><path class="cls-1" d="M1571.7,593a8.4,8.4,0,0,0-10.2,0,5.52,5.52,0,0,0-2.1,4.1V642a12.13,12.13,0,0,1-4.7,9.6c-3.1,2.6-6.8,2.6-11,2.6a16.75,16.75,0,0,1-11.1-3.9c-3.1-2.6-4.3-11-4.3-14.8a5.21,5.21,0,0,0-2.1-4.1,8.4,8.4,0,0,0-10.2,0,5.52,5.52,0,0,0-2.1,4.1c0,6.9,0,17.5,8.3,25,5.7,5.1,12.9,7.4,21.3,7.4s15.4-1.1,21.2-6.1,8.7-10.9,8.7-17.8V597.1A4,4,0,0,0,1571.7,593Z"/><path class="cls-1" d="M1636.8,592.6a6.78,6.78,0,0,0-4.9,1.8,5.5,5.5,0,0,0-2,4.3v42.6a13.26,13.26,0,0,1-4.5,10.1,15.94,15.94,0,0,1-21.4,0,13.23,13.23,0,0,1-4.5-10.1V598.7a5.5,5.5,0,0,0-2-4.3,8.74,8.74,0,0,0-5.6-1.8,6.78,6.78,0,0,0-4.9,1.8,5.5,5.5,0,0,0-2,4.3v42.6c0,7.3,3.5,13.5,9.1,18.7a29.17,29.17,0,0,0,20.6,7.8A31.11,31.11,0,0,0,1636,660a24.5,24.5,0,0,0,8.5-18.7V598.7a5.5,5.5,0,0,0-2-4.3A9.4,9.4,0,0,0,1636.8,592.6Z"/><path class="cls-1" d="M1702.1,596.9a30.07,30.07,0,0,0-16.9-5.2,24.58,24.58,0,0,0-6,.7,52.23,52.23,0,0,0-5.6,1.8,28.76,28.76,0,0,0-7.5,4.5,32,32,0,0,0-5.8,6.4,32.79,32.79,0,0,0-3.7,7.8,30.89,30.89,0,0,0-1.4,9.1v39a7,7,0,0,0,7,7,6.66,6.66,0,0,0,4.9-2.1,7,7,0,0,0,2-4.9V621.9a15.23,15.23,0,0,1,1.4-6.3,15.76,15.76,0,0,1,14.8-9.9,16.81,16.81,0,0,1,6.3,1.2,16.42,16.42,0,0,1,9.9,15V661a7,7,0,0,0,7,7,6.66,6.66,0,0,0,4.9-2.1,7,7,0,0,0,2-4.9V621.9a31.39,31.39,0,0,0-2.3-11.8A30.19,30.19,0,0,0,1702.1,596.9Z"/><path class="cls-1" d="M1797.7,615.1a37.93,37.93,0,0,0-13.7-16.7,37.18,37.18,0,0,0-10-4.9,36.58,36.58,0,0,0-19.1-.8,45.21,45.21,0,0,0-7.1,2.3,36.91,36.91,0,0,0-9.5,5.7,37.75,37.75,0,0,0-12.1,18,38.41,38.41,0,0,0,1.2,26.3,43.28,43.28,0,0,0,5.8,9.4,35.29,35.29,0,0,0,8.1,7.3,41.52,41.52,0,0,0,9.9,4.9,33.71,33.71,0,0,0,11.3,1.7,37.69,37.69,0,0,0,31.7-16.9,36.49,36.49,0,0,0,6.4-21.2A37,37,0,0,0,1797.7,615.1Zm-12.9,24.4a22.3,22.3,0,0,1-8.8,10.4,24.32,24.32,0,0,1-6.2,3.2,22.28,22.28,0,0,1-7.3,1.1,23.69,23.69,0,0,1-9.4-2,24.73,24.73,0,0,1-10.6-8.6,26,26,0,0,1-3-6.3,24.47,24.47,0,0,1-1.1-7.1,27.15,27.15,0,0,1,.5-4.9,38.09,38.09,0,0,1,1.3-4.5,24.6,24.6,0,0,1,8.8-10.6,23.33,23.33,0,0,1,13.5-4.1,25.33,25.33,0,0,1,9.4,1.8,24.6,24.6,0,0,1,10.6,8.8,24.09,24.09,0,0,1,4.1,13.5A21.72,21.72,0,0,1,1784.8,639.5Z"/><circle class="cls-1" cx="1566.5" cy="574.7" r="7.7"/><circle class="cls-1" cx="1810.5" cy="659.4" r="7.7"/><path class="cls-1" d="M1481.1,371.8l-29.8,164.8h-16.1l29.9-164.8Z"/><path class="cls-1" d="M1586.4,455.4h-64.7l-12.4,68.7h71.6l-4.6,12.5H1491l29.8-164.8h84l-2.3,12.6h-68l-10.6,58.4h64.7Z"/><path class="cls-1" d="M2208.1,0c-145.5,0-348,168-348,333.4V666.8h26.7c145.5,0,348-168,348-333.4V0Zm-19.5,333.4c0,128.9-161.7,271.6-282.4,286v-286c0-128.9,161.7-271.6,282.4-286Z"/><path class="cls-1" d="M1551.3.4h-25.8V244.7c0,37.5,14.7,75.1,38.3,109.2h58.4c-30.2-33.3-50.6-72.1-50.6-109.2V48.2C1658.3,62,1770,157.9,1770,244.7V441.2a196.12,196.12,0,0,1-44.3-13.1h-46.3s26.1,16.3,33.4,27.2a48,48,0,0,1,7.7,20c23.9,8.8,47.7,13.7,69.8,13.7h25.8V244.7C1816.2,123.5,1662.1.4,1551.3.4Z"/><path class="cls-1" d="M1618.8,494.3c-1.8,18.1,6.2,32.2,28.4,32.2,21.2,0,34.4-9.6,38.3-31,3.4-18.7-3.2-28.5-27.8-39.6-26.8-11.9-38.1-23.2-33.8-46.9,3.8-21.2,22.9-39.4,52.8-39.4,34.7,0,40.4,22,37.7,40.5h-16c.5-7.5,1.4-28.4-24.7-28.4-20.2,0-30.8,12.1-33.3,26-3.1,17.2,4.3,25.3,27,35.5,30.6,13.8,39.2,27.7,34.9,51.1-4.7,26.1-24.5,44.2-57.8,44.2-36.2,0-44.8-20.6-42.1-44.3Z"/><path class="cls-1" d="M1809.8,657.1v.5h-1.3v4.2h-.6v-4.1h-1.3a.1.1,0,0,1-.1-.1v-.4a.1.1,0,0,1,.1-.1Z"/><path class="cls-1" d="M1813.8,657h.5a.1.1,0,0,1,.1.1v4.7h-.6v-3.5h0l-1,1.5h-.5l-1-1.5h0v3.5a.1.1,0,0,1-.1.1h-.5a.1.1,0,0,1-.1-.1v-4.6a.1.1,0,0,1,.1-.1h.6l1.2,1.8h0l1.3-1.9C1813.7,657.1,1813.7,657,1813.8,657Z"/></g></g></g></g></svg>