<?xml version="1.0" encoding="utf-8"?>
<!-- Generator: Adobe Illustrator 24.0.2, SVG Export Plug-In . SVG Version: 6.00 Build 0)  -->
<svg version="1.1" id="Layer_1" xmlns="http://www.w3.org/2000/svg" xmlns:xlink="http://www.w3.org/1999/xlink" x="0px" y="0px"
	 viewBox="0 0 2234.8 668.2" style="enable-background:new 0 0 2234.8 668.2;" xml:space="preserve">
<style type="text/css">
	.st0{fill:#3DA935;}
	.st1{fill:url(#SVGID_1_);}
	.st2{fill:url(#SVGID_2_);}
	.st3{fill:url(#SVGID_3_);}
	.st4{fill:url(#SVGID_4_);}
	.st5{fill:url(#SVGID_5_);}
	.st6{fill:#1183C6;}
	.st7{fill:none;}
	.st8{fill:url(#SVGID_6_);}
	.st9{fill:url(#SVGID_7_);}
	.st10{fill:#FFFFFF;}
</style>
<title>omega_allergies_logo</title>
<g id="Layer_2_1_">
	<g id="Calque_1">
		<path class="st0" d="M755.4,480.3l-25.7,56.2h-16.1l76.7-164.8h20.9L830,536.6h-17.3l-5.6-56.3L755.4,480.3z M805.8,467.8
			c-4.6-43.8-7.5-70.5-7.7-82.7h-0.6c-5.3,14-19.4,45.5-36.4,82.7L805.8,467.8z"/>
		<path class="st0" d="M882.6,371.8h16.1l-27.6,152.3h69.3l-5.2,12.5h-82.5L882.6,371.8z"/>
		<path class="st0" d="M988,371.8h16.1l-27.6,152.3h69.3l-5.2,12.5h-82.5L988,371.8z"/>
		<path class="st0" d="M1158.9,455.4h-64.7l-12.4,68.7h71.6l-4.6,12.5h-85.2l29.8-164.8h84l-2.3,12.6h-68l-10.6,58.4h64.7
			L1158.9,455.4z"/>
		<path class="st0" d="M1205.3,458.7l-14.1,77.9h-16.1l29.9-164.8h46.7c31.1,0,44,15.7,39.3,41.6c-4.5,24.9-20.2,35.5-32.9,38.9
			c17.8,5.3,20.2,19.7,16.1,42.3l-1.2,6.5c-2.6,14.1-4.4,26.4-3.6,35.4H1253c-1.2-7.5,1.5-22.8,3.8-35.8l1-5.4
			c4.3-24,1.2-36.6-26.2-36.6L1205.3,458.7z M1207.5,446.4h27.5c24.2,0,35.6-12.7,39.2-32.7c3.2-17.4-3.9-29.6-26.4-29.6h-29
			L1207.5,446.4z"/>
		<path class="st0" d="M1399.2,536.6h-13c0.3-6.4,1.1-12.8,2.3-19.2c-7.4,10.9-17.5,21.5-42.3,21.5c-42,0-44.4-39-36.1-84.8
			c10-55.5,34.3-84.5,72.3-84.5c43.6,0,40.6,33.9,39.3,43.8h-16.3c0.4-5.6,3.7-31.3-25.8-31.3c-28.8,0-44.7,28.2-52.6,71.7
			c-7.7,42.2-5.3,72.8,23.4,72.8c28.6,0,38.4-21,45.4-59.3l1.4-7.6h-35.9l2.3-12.5h51.8L1399.2,536.6z"/>
		
			<radialGradient id="SVGID_1_" cx="508.75" cy="497.935" r="139.6856" gradientTransform="matrix(1 0 0 -1 0 670)" gradientUnits="userSpaceOnUse">
			<stop  offset="0" style="stop-color:#149BD7"/>
			<stop  offset="0.17" style="stop-color:#1594CF"/>
			<stop  offset="0.42" style="stop-color:#1680BA"/>
			<stop  offset="0.73" style="stop-color:#186098"/>
			<stop  offset="1" style="stop-color:#1B3E73"/>
		</radialGradient>
		<path class="st1" d="M599.1,200.2c0-49.1,0.3-99,1.7-129.1h-0.3c-12.3,48.2-41.9,139.8-73,239.7h-45.7
			c-23.9-85.7-56.7-189.8-70-239.5h-0.4c2,32.1,3.9,87.6,3.9,134.7v104.8h-47.1V33.3h75c27.9,87.5,56.9,175.2,64.2,209.2h0.4
			c10.9-40.8,39.8-125.9,66.2-209.2h75.5v277.5h-50.3V200.2z"/>
		
			<radialGradient id="SVGID_2_" cx="820.96" cy="497.935" r="122.802" gradientTransform="matrix(1 0 0 -1 0 670)" gradientUnits="userSpaceOnUse">
			<stop  offset="0" style="stop-color:#149BD7"/>
			<stop  offset="0.17" style="stop-color:#1594CF"/>
			<stop  offset="0.42" style="stop-color:#1680BA"/>
			<stop  offset="0.73" style="stop-color:#186098"/>
			<stop  offset="1" style="stop-color:#1B3E73"/>
		</radialGradient>
		<path class="st2" d="M910,189.8H768.5v73.8h156.9l-6.2,47.2H716.5V33.3h201v47.2h-149v62.1H910V189.8z"/>
		
			<radialGradient id="SVGID_3_" cx="1084.1301" cy="497.93" r="135.9669" gradientTransform="matrix(1 0 0 -1 0 670)" gradientUnits="userSpaceOnUse">
			<stop  offset="0" style="stop-color:#149BD7"/>
			<stop  offset="0.17" style="stop-color:#1594CF"/>
			<stop  offset="0.42" style="stop-color:#1680BA"/>
			<stop  offset="0.73" style="stop-color:#186098"/>
			<stop  offset="1" style="stop-color:#1B3E73"/>
		</radialGradient>
		<path class="st3" d="M1210.1,310.8h-38.2c-1.3-6.4-2.9-21.8-3.6-32.5c-15.9,23.8-38.5,38.4-85.6,38.4
			c-79.5,0-125.2-60.5-125.2-143.3c0-81.3,48.2-146,134.8-146c77.8,0,111.2,46.5,118.6,87h-52.7c-6.4-17.8-23-42.1-66.1-42.1
			c-54.3,0-79.8,43.2-79.8,98.2c0,58,26.2,101.1,80,101.1c45,0,67.4-26,67.4-66v-5.7H1093v-45.8h117L1210.1,310.8z"/>
		
			<radialGradient id="SVGID_4_" cx="1381.0149" cy="497.935" r="137.9971" gradientTransform="matrix(1 0 0 -1 0 670)" gradientUnits="userSpaceOnUse">
			<stop  offset="0" style="stop-color:#149BD7"/>
			<stop  offset="0.17" style="stop-color:#1594CF"/>
			<stop  offset="0.42" style="stop-color:#1680BA"/>
			<stop  offset="0.73" style="stop-color:#186098"/>
			<stop  offset="1" style="stop-color:#1B3E73"/>
		</radialGradient>
		<path class="st4" d="M1322.3,241l-24.9,69.8h-53.6l101.9-277.5h65.9l106.7,277.5H1462l-26.4-69.8H1322.3z M1420.6,193.7
			c-25.4-67.8-37.6-101.5-43.4-121.9h-0.3c-5.4,19.9-19.8,63.8-40.4,121.9H1420.6z"/>
		
			<radialGradient id="SVGID_5_" cx="166.945" cy="508.935" r="158.3566" gradientTransform="matrix(1 0 0 -1 0 670)" gradientUnits="userSpaceOnUse">
			<stop  offset="0" style="stop-color:#149BD7"/>
			<stop  offset="0.17" style="stop-color:#1594CF"/>
			<stop  offset="0.42" style="stop-color:#1680BA"/>
			<stop  offset="0.73" style="stop-color:#186098"/>
			<stop  offset="1" style="stop-color:#1B3E73"/>
		</radialGradient>
		<path class="st5" d="M314.1,272.2h-38.6c35.7-27.1,58.3-67.4,58.3-112.4c0-81.8-74.7-148-166.9-148S0,78,0,159.8
			c0,45,22.6,85.3,58.3,112.4H20v12.1h-0.3v26.1h132.1v-44.8c-50.2-7.2-88.7-49.9-88.7-101.5c0-56.7,46.5-102.6,103.9-102.6
			s103.8,46,103.8,102.6c0,51.6-38.5,94.3-88.7,101.5v44.8h132v-26.1l0,0L314.1,272.2z"/>
		<path class="st6" d="M1421.7,616.3h16.5c10.3,0,14.3,5.6,14.3,11.9s-3.9,10.7-9.9,12.3c4.5,1.5,7.6,5.8,7.5,10.6
			c0,10.8-8.4,15.8-19.6,15.8H1411L1421.7,616.3z M1418.3,661.7h12.4c7,0,12.7-3.2,12.8-10.3c0-5.1-3.3-8.7-10.9-8.7h-10.3
			L1418.3,661.7z M1434.2,637.5c6.9,0,11.8-2.4,11.8-8.8c0-5.3-4-7.2-9-7.2h-10.1l-3.4,16L1434.2,637.5z"/>
		<path class="st6" d="M1465.6,666.9l4-19c0.1-0.4,0.1-0.9-0.1-1.3l-11-30.3h6.6c2.7,8,7.6,21.4,8.9,25.8
			c2.9-4.5,13.3-17.7,19.6-25.8h7l-24.2,30.7c-0.3,0.4-0.5,0.8-0.6,1.3l-4,18.6L1465.6,666.9z"/>
		<path class="st6" d="M1571.7,593c-3-2.3-7.2-2.3-10.2,0c-1.3,1-2,2.5-2.1,4.1V642c0,3.7-1.7,7.3-4.7,9.6c-3.1,2.6-6.8,2.6-11,2.6
			c-4,0.1-8-1.3-11.1-3.9c-3.1-2.6-4.3-11-4.3-14.8c0-1.6-0.8-3.1-2.1-4.1c-3-2.3-7.2-2.3-10.2,0c-1.3,1-2,2.5-2.1,4.1
			c0,6.9,0,17.5,8.3,25c5.7,5.1,12.9,7.4,21.3,7.4s15.4-1.1,21.2-6.1s8.7-10.9,8.7-17.8v-46.9C1573.8,595.5,1573,594,1571.7,593z"/>
		<path class="st6" d="M1636.8,592.6c-1.8-0.1-3.6,0.6-4.9,1.8c-1.3,1.1-2,2.6-2,4.3v42.6c0,3.9-1.6,7.6-4.5,10.1
			c-6.1,5.5-15.4,5.5-21.4,0c-2.9-2.6-4.6-6.3-4.5-10.1v-42.6c0-1.7-0.7-3.2-2-4.3c-1.6-1.2-3.6-1.9-5.6-1.8
			c-1.8-0.1-3.6,0.6-4.9,1.8c-1.3,1.1-2,2.6-2,4.3v42.6c0,7.3,3.5,13.5,9.1,18.7c5.6,5.2,13,8,20.6,7.8c8.1,0,15.6-2.6,21.3-7.8
			s8.5-11.5,8.5-18.7v-42.6c0-1.7-0.7-3.2-2-4.3C1640.7,593.2,1638.8,592.5,1636.8,592.6z"/>
		<path class="st6" d="M1702.1,596.9c-5-3.4-10.9-5.2-16.9-5.2c-2,0-4,0.2-6,0.7c-1.9,0.5-3.8,1.1-5.6,1.8c-2.7,1.1-5.2,2.6-7.5,4.5
			c-2.2,1.9-4.2,4-5.8,6.4c-1.6,2.4-2.8,5.1-3.7,7.8c-0.9,2.9-1.4,6-1.4,9.1V661c0,3.9,3.1,7,7,7c1.8,0,3.6-0.7,4.9-2.1
			c1.3-1.3,2-3.1,2-4.9v-39.1c0-2.2,0.5-4.3,1.4-6.3c2.4-6,8.3-10,14.8-9.9c2.2,0,4.3,0.4,6.3,1.2c2.9,1.3,5.4,3.3,7.1,5.9
			c1.8,2.7,2.8,5.8,2.8,9.1V661c0,3.9,3.1,7,7,7c1.8,0,3.6-0.7,4.9-2.1c1.3-1.3,2-3.1,2-4.9v-39.1c0-4.1-0.8-8.1-2.3-11.8
			C1710.7,604.7,1707,600.1,1702.1,596.9z"/>
		<path class="st6" d="M1797.7,615.1c-2.9-6.8-7.6-12.6-13.7-16.7c-3.1-2.1-6.4-3.8-10-4.9c-3.7-1.2-7.5-1.8-11.4-1.7
			c-2.6,0-5.1,0.3-7.7,0.9c-2.4,0.6-4.8,1.3-7.1,2.3c-3.4,1.4-6.6,3.3-9.5,5.7c-5.7,4.7-9.9,10.9-12.1,18
			c-2.7,8.6-2.3,17.9,1.2,26.3c1.5,3.4,3.5,6.5,5.8,9.4c2.3,2.8,5,5.3,8.1,7.3c3.1,2.1,6.4,3.7,9.9,4.9c3.7,1.2,7.5,1.8,11.3,1.7
			c5.1,0,10.2-1,15-3c6.8-3,12.6-7.8,16.7-13.9c4.3-6.2,6.5-13.7,6.4-21.2C1800.7,624.9,1799.7,619.9,1797.7,615.1z M1784.8,639.5
			c-1.8,4.3-4.8,7.9-8.8,10.4c-1.9,1.4-4,2.4-6.2,3.2c-2.3,0.8-4.8,1.1-7.3,1.1c-3.2,0-6.4-0.7-9.4-2c-4.3-1.8-7.9-4.8-10.6-8.6
			c-1.3-2-2.3-4.1-3-6.3c-0.7-2.3-1.1-4.7-1.1-7.1c0-1.6,0.2-3.3,0.5-4.9c0.3-1.5,0.8-3,1.3-4.5c1.9-4.3,4.9-8,8.8-10.6
			c4-2.7,8.7-4.2,13.5-4.1c3.2,0,6.4,0.6,9.4,1.8c4.3,1.9,8,4.9,10.6,8.8c2.7,4,4.1,8.7,4.1,13.5
			C1786.7,633.3,1786.1,636.5,1784.8,639.5z"/>
		<circle class="st6" cx="1566.5" cy="574.7" r="7.7"/>
		<circle class="st6" cx="1810.5" cy="659.4" r="7.7"/>
		<path class="st0" d="M1481.1,371.8l-29.8,164.8h-16.1l29.9-164.8H1481.1z"/>
		<path class="st0" d="M1586.4,455.4h-64.7l-12.4,68.7h71.6l-4.6,12.5H1491l29.8-164.8h84l-2.3,12.6h-68l-10.6,58.4h64.7
			L1586.4,455.4z"/>
		<path class="st7" d="M1906.2,333.4v286c120.7-14.5,282.4-157.1,282.4-286v-286C2067.9,61.8,1906.2,204.5,1906.2,333.4z"/>
		
			<linearGradient id="SVGID_6_" gradientUnits="userSpaceOnUse" x1="2047.425" y1="685.15" x2="2047.425" y2="0.19" gradientTransform="matrix(1 0 0 -1 0 670)">
			<stop  offset="1.000000e-02" style="stop-color:#B0CA22"/>
			<stop  offset="0.4" style="stop-color:#47AB37"/>
			<stop  offset="0.52" style="stop-color:#3C9F37"/>
			<stop  offset="0.8" style="stop-color:#288836"/>
			<stop  offset="0.98" style="stop-color:#218036"/>
		</linearGradient>
		<path class="st8" d="M2208.1,0c-145.5,0-348,168-348,333.4v333.4h26.7c145.5,0,348-168,348-333.4V0H2208.1z M2188.6,333.4
			c0,128.9-161.7,271.6-282.4,286v-286c0-128.9,161.7-271.6,282.4-286V333.4z"/>
		
			<linearGradient id="SVGID_7_" gradientUnits="userSpaceOnUse" x1="1670.8301" y1="685.15" x2="1670.8301" y2="0.19" gradientTransform="matrix(1 0 0 -1 0 670)">
			<stop  offset="1.000000e-02" style="stop-color:#B0CA22"/>
			<stop  offset="0.4" style="stop-color:#47AB37"/>
			<stop  offset="0.52" style="stop-color:#3C9F37"/>
			<stop  offset="0.8" style="stop-color:#288836"/>
			<stop  offset="0.98" style="stop-color:#218036"/>
		</linearGradient>
		<path class="st9" d="M1551.3,0.4h-25.8v244.3c0,37.5,14.7,75.1,38.3,109.2h58.4c-30.2-33.3-50.6-72.1-50.6-109.2V48.2
			c86.7,13.8,198.4,109.7,198.4,196.5v196.5c-15.2-2.6-30.1-7-44.3-13.1h-46.3c0,0,26.1,16.3,33.4,27.2c4,6,6.7,12.8,7.7,20
			c23.9,8.8,47.7,13.7,69.8,13.7h25.8V244.7C1816.2,123.5,1662.1,0.4,1551.3,0.4z"/>
		<path class="st0" d="M1618.8,494.3c-1.8,18.1,6.2,32.2,28.4,32.2c21.2,0,34.4-9.6,38.3-31c3.4-18.7-3.2-28.5-27.8-39.6
			c-26.8-11.9-38.1-23.2-33.8-46.9c3.8-21.2,22.9-39.4,52.8-39.4c34.7,0,40.4,22,37.7,40.5h-16c0.5-7.5,1.4-28.4-24.7-28.4
			c-20.2,0-30.8,12.1-33.3,26c-3.1,17.2,4.3,25.3,27,35.5c30.6,13.8,39.2,27.7,34.9,51.1c-4.7,26.1-24.5,44.2-57.8,44.2
			c-36.2,0-44.8-20.6-42.1-44.3L1618.8,494.3z"/>
		<path class="st10" d="M1809.8,657.1v0.4c0,0,0,0.1,0,0.1c0,0,0,0,0,0h-1.3l0,0v4.1c0,0,0,0.1,0,0.1c0,0,0,0,0,0h-0.5
			c0,0-0.1,0-0.1,0c0,0,0,0,0,0v-4.1l0,0h-1.3c0,0-0.1,0-0.1-0.1v-0.4c0,0,0-0.1,0.1-0.1L1809.8,657.1
			C1809.8,657,1809.8,657.1,1809.8,657.1z"/>
		<path class="st10" d="M1813.8,657h0.5c0,0,0.1,0,0.1,0.1v4.6c0,0,0,0.1,0,0.1c0,0,0,0,0,0h-0.5c0,0-0.1,0-0.1,0c0,0,0,0,0,0v-3.5
			l0,0l0,0l-1,1.5c0,0-0.1,0-0.1,0h-0.3c0,0-0.1,0-0.1,0l-1-1.5l0,0v3.5c0,0,0,0.1-0.1,0.1h-0.5c0,0-0.1,0-0.1-0.1v-4.6
			c0,0,0-0.1,0.1-0.1h0.5c0,0,0.1,0,0.1,0l1.2,1.8l0,0L1813.8,657C1813.7,657.1,1813.7,657,1813.8,657z"/>
	</g>
</g>
</svg>
